<svg width="14" height="17" viewBox="0 0 14 17" fill="none" xmlns="http://www.w3.org/2000/svg">
<path d="M3.22008 7.43541H9.91529V8.49814H3.22008V7.43541ZM3.22008 9.86907H9.91529V11.0062H3.22008V9.86907ZM3.22008 12.3346H9.91529V13.4611H3.22008V12.3346ZM11.1056 2.00484V3.18448H12.0089V15.9373H1.1265V3.18448H2.02982V2.00484H0V17H13.1354V2.00484H11.1056ZM10.0322 1.36721H8.41684C8.16657 0.569093 7.43328 0 6.56769 0C5.70209 0 4.96881 0.569093 4.72225 1.35339L4.71853 1.36721H3.10318V4.87422H10.0322V1.36721ZM8.89507 3.7371H4.2403V2.50433H5.76001V1.93045C5.76001 1.48464 6.12187 1.12278 6.56769 1.12278C7.0135 1.12278 7.37536 1.48464 7.37536 1.93045V2.50433H8.89507V3.7371Z" fill="#6E6E6E"/>
</svg>
