<svg width="16" height="16" viewBox="0 0 16 16" fill="none" xmlns="http://www.w3.org/2000/svg">
<path d="M16 16H0L0.11 15.46C0.11 15.25 0.63 11.06 3.79 8.91L4.11 8.7L4.42 8.91C5.40427 9.78123 6.6689 10.2696 7.98327 10.2862C9.29763 10.3027 10.5741 9.84621 11.58 9L11.89 8.79L12.21 9C15.47 11.15 15.89 15.34 15.89 15.55L16 16ZM1.16 14.93H14.74C14.3722 13.0127 13.368 11.2756 11.89 10C10.7434 10.8333 9.36242 11.2822 7.945 11.2822C6.52758 11.2822 5.14657 10.8333 4 10C2.56367 11.308 1.57093 13.0313 1.16 14.93Z" fill="#0082CD"/>
<path d="M8 0C7.10801 0 6.23604 0.264507 5.49438 0.760072C4.75271 1.25564 4.17465 1.96 3.8333 2.7841C3.49195 3.60819 3.40264 4.515 3.57666 5.38986C3.75068 6.26471 4.18021 7.06832 4.81095 7.69905C5.44168 8.32979 6.24529 8.75932 7.12014 8.93334C7.995 9.10736 8.90181 9.01805 9.7259 8.6767C10.55 8.33535 11.2544 7.75729 11.7499 7.01562C12.2455 6.27396 12.51 5.40199 12.51 4.51C12.51 3.31387 12.0348 2.16674 11.1891 1.32095C10.3433 0.475159 9.19613 0 8 0ZM8 7.94C7.31878 7.94198 6.65232 7.74165 6.08508 7.36442C5.51785 6.98719 5.07539 6.45004 4.81378 5.82106C4.55218 5.19207 4.48321 4.49958 4.61563 3.83135C4.74804 3.16313 5.07587 2.54926 5.55757 2.06757C6.03926 1.58587 6.65313 1.25804 7.32135 1.12563C7.98958 0.993213 8.68207 1.06218 9.31106 1.32378C9.94004 1.58539 10.4772 2.02785 10.8544 2.59508C11.2317 3.16232 11.432 3.82878 11.43 4.51C11.4274 5.41888 11.0651 6.28978 10.4225 6.93246C9.77978 7.57514 8.90888 7.93736 8 7.94Z" fill="#0082CD"/>
</svg>
